<?xml version="1.0" encoding="UTF-8"?>
<svg width="154px" height="40px" viewBox="0 0 154 40" version="1.1" xmlns="http://www.w3.org/2000/svg" xmlns:xlink="http://www.w3.org/1999/xlink">
    <!-- Generator: sketchtool 53.2 (72643) - https://sketchapp.com -->
    <title>ADEEAB87-C08F-48AC-B072-6856DE2BC418@1x</title>
    <desc>Created with sketchtool.</desc>
    <g id="Page-1" stroke="none" stroke-width="1" fill="none" fill-rule="evenodd">
        <g id="AquaGradus-Prima-landing-" transform="translate(-389.000000, -10.000000)" fill-rule="nonzero">
            <g id="AquaGradusEng1-1" transform="translate(389.000000, 10.000000)">
                <g id="Group">
                    <path d="M12.5398176,-2.56140938e-14 C12.7465046,1.19148936 13.0504559,2.34650456 13.3787234,3.51367781 C13.7799392,4.92401216 14.2662614,6.3100304 14.8255319,7.67173252 C15.4699088,9.19148936 16.1993921,10.662614 17.0382979,12.0851064 C17.6948328,13.2036474 18.4,14.2978723 19.1537994,15.3677812 C20.2601824,16.9483283 21.4151976,18.4924012 22.5702128,20.0364742 C23.6887538,21.5440729 24.4425532,23.2097264 24.8194529,25.0455927 C25.0139818,26.006079 25.1112462,26.9787234 25.062614,27.9635258 C24.9896657,29.4954407 24.6735562,30.9665653 24.0656535,32.3890578 C23.6279635,33.4224924 23.068693,34.3829787 22.3635258,35.2462006 C21.4030395,36.4255319 20.2844985,37.4468085 18.9714286,38.224924 C17.7556231,38.9422492 16.4547112,39.4772036 15.056535,39.7568389 C14.4364742,39.8784195 13.8042553,39.9756839 13.1477204,39.9878419 C11.8589666,40 10.5945289,39.9392097 9.33009119,39.6109422 C7.6887538,39.1732523 6.20547112,38.4559271 4.86808511,37.4224924 C3.22674772,36.1580547 1.95015198,34.5775076 1.09908815,32.668693 C0.551975684,31.4407295 0.187234043,30.1519757 0.0656534954,28.8024316 C-0.00729483283,28.0121581 -0.0194528875,27.2097264 0.0291793313,26.4316109 C0.126443769,24.9848024 0.479027356,23.5866261 1.07477204,22.2492401 C1.60972644,21.0455927 2.41215805,20.0243161 3.21458967,19.0030395 C4.07781155,17.8966565 4.91671733,16.7659574 5.7556231,15.6352584 C6.63100304,14.443769 7.44559271,13.2036474 8.18723404,11.9270517 C8.79513678,10.8693009 9.35440729,9.78723404 9.84072948,8.66869301 C10.3635258,7.46504559 10.8255319,6.23708207 11.2267477,4.98480243 C11.725228,3.42857143 12.1142857,1.84802432 12.4182371,0.243161094 C12.4303951,0.158054711 12.4547112,0.085106383 12.4790274,-2.84217094e-14 C12.5033435,-2.56140938e-14 12.5276596,-2.56140938e-14 12.5398176,-2.56140938e-14 Z" id="Path" fill="#7BCCF0"></path>
                    <path d="M18.83769,30.0790274 C18.9592705,33.325228 16.0413374,36.6200608 12.0778116,36.3647416 C9.22066869,36.1823708 5.98662614,33.6291793 6.24194529,29.5683891 C6.42431611,26.7355623 8.96534954,23.4893617 13.062614,23.768997 C16.0291793,23.9756839 18.9227964,26.5896657 18.83769,30.0790274 Z" id="Path" fill="#FEFEFE"></path>
                    <path d="M18.2662614,30.0303951 C18.2541033,33.1793313 15.6887538,35.7325228 12.5276596,35.7325228 C9.36656535,35.7325228 6.80121581,33.1550152 6.82553191,29.9696049 C6.83768997,26.8206687 9.41519757,24.2796353 12.5762918,24.2796353 C15.725228,24.2917933 18.2662614,26.8693009 18.2662614,30.0303951 Z" id="Path" fill="#0075BB"></path>
                </g>
                <g id="Group-2" transform="translate(32.960000, 13.895000)">
                    <path d="M2.84217094e-14,16.325 C0.52,15.465 0.82,14.525 1.22,13.605 C2.86,9.765 4.46,5.905 6.1,2.045 C6.28,1.605 6.48,1.145 6.78,0.765 C7.58,-0.255 8.92,-0.255 9.72,0.765 C10.26,1.465 10.52,2.305 10.86,3.105 C12.7,7.445 14.52,11.805 16.36,16.145 C16.6,16.705 16.44,16.945 15.84,16.965 C14.66,16.985 14.66,16.985 14.22,15.905 C13.78,14.825 13.32,13.765 12.88,12.685 C12.76,12.365 12.62,12.245 12.26,12.245 C9.58,12.265 6.9,12.265 4.22,12.245 C3.92,12.245 3.78,12.325 3.66,12.625 C3.12,13.965 2.56,15.285 2.02,16.625 C1.92,16.905 1.78,17.005 1.5,16.985 C1.28,16.965 1.04,16.965 0.82,16.985 C0.48,17.025 0.22,16.965 0.02,16.665 C2.84217094e-14,16.545 2.84217094e-14,16.425 2.84217094e-14,16.325 Z" id="Path" fill="#000000"></path>
                    <path d="M62.3,1.985 C61.16,1.985 60,1.925 58.86,2.005 C56.52,2.145 55.12,3.385 54.7,5.645 C54.32,7.765 54.32,9.905 54.78,12.025 C55.22,14.065 56.6,15.205 58.7,15.225 C60.58,15.245 62.46,15.245 64.34,15.225 C65,15.225 65.12,15.085 65.12,14.425 C65.12,12.845 65.12,11.245 65.12,9.665 C65.12,9.025 65.24,8.925 65.88,8.925 C66.08,8.925 66.26,8.925 66.46,8.925 C66.82,8.945 67,9.125 67,9.485 C67,11.385 67.02,13.285 66.98,15.185 C66.96,16.185 66.38,16.885 65.32,16.925 C62.76,17.025 60.2,17.145 57.64,16.885 C55.06,16.625 53.46,15.025 52.86,12.525 C52.24,9.985 52.24,7.405 52.84,4.865 C53.54,1.945 55.74,0.285 58.86,0.225 C61.24,0.185 63.64,0.225 66.02,0.205 C66.44,0.205 66.62,0.405 66.62,0.805 C66.62,0.945 66.62,1.085 66.62,1.225 C66.62,1.805 66.5,1.925 65.92,1.925 C64.7,1.925 63.48,1.925 62.26,1.925 C62.3,1.965 62.3,1.965 62.3,1.985 Z" id="Path" fill="#000000"></path>
                    <path d="M27.08,13.085 C27.08,15.445 27.08,17.785 27.08,20.145 C27.08,20.765 26.98,20.865 26.36,20.865 C26.22,20.865 26.08,20.865 25.94,20.865 C25.46,20.905 25.24,20.685 25.24,20.185 C25.26,19.265 25.22,18.345 25.26,17.405 C25.28,17.045 25.2,16.905 24.78,16.905 C23.58,16.945 22.38,16.925 21.18,16.925 C18.52,16.925 17.08,15.805 16.6,13.185 C16.22,11.145 16.22,9.085 16.84,7.085 C17.46,5.105 18.9,4.085 20.98,4.065 C22.34,4.065 23.7,4.065 25.06,4.065 C26.36,4.065 27.08,4.785 27.08,6.105 C27.08,8.465 27.08,10.785 27.08,13.085 Z" id="Path" fill="#000000"></path>
                    <path d="M96.4,8.045 C96.4,10.325 96.4,12.605 96.4,14.885 C96.4,16.425 95.86,16.965 94.32,16.965 C93.16,16.965 91.98,16.965 90.82,16.965 C88.02,16.965 86.54,15.765 86.02,12.985 C85.72,11.345 85.7,9.685 85.98,8.045 C86.38,5.605 88.18,4.125 90.76,4.105 C91.84,4.085 92.92,4.085 94,4.105 C94.44,4.125 94.64,4.025 94.6,3.525 C94.56,2.665 94.6,1.785 94.58,0.905 C94.58,0.425 94.74,0.205 95.24,0.205 C96.4,0.205 96.4,0.205 96.4,1.385 C96.4,3.605 96.4,5.825 96.4,8.045 Z" id="Path" fill="#000000"></path>
                    <path d="M50.82,11.245 C50.82,12.525 50.82,13.825 50.82,15.105 C50.82,16.325 50.22,16.925 48.98,16.945 C47.3,16.945 45.64,16.945 43.96,16.945 C41.82,16.945 40.86,16.165 40.52,14.065 C40.38,13.265 40.38,12.425 40.54,11.625 C40.86,9.925 41.92,9.045 43.68,9.025 C45.3,9.005 46.92,9.005 48.54,9.025 C48.88,9.025 49.04,8.965 49,8.585 C48.96,8.025 49.04,7.445 48.88,6.865 C48.7,6.245 48.34,5.865 47.68,5.825 C47.12,5.785 46.56,5.785 46.02,5.785 C44.68,5.785 43.34,5.765 42,5.785 C41.56,5.785 41.34,5.625 41.38,5.165 C41.4,4.965 41.38,4.785 41.38,4.585 C41.4,4.265 41.56,4.085 41.9,4.085 C43.92,4.085 45.94,4.045 47.96,4.105 C49.7,4.165 50.8,5.445 50.82,7.325 C50.84,8.645 50.82,9.945 50.82,11.245 Z" id="Path" fill="#000000"></path>
                    <path d="M84.58,11.245 C84.58,12.525 84.58,13.825 84.58,15.105 C84.58,16.325 83.98,16.945 82.74,16.945 C81.06,16.945 79.4,16.945 77.72,16.945 C75.56,16.945 74.58,16.125 74.26,14.005 C74.14,13.205 74.14,12.405 74.28,11.605 C74.62,9.905 75.66,9.025 77.42,8.985 C78.82,8.965 80.2,8.985 81.6,8.985 C82.74,8.985 82.74,8.985 82.74,7.825 C82.74,7.485 82.7,7.165 82.62,6.845 C82.46,6.205 82.08,5.865 81.42,5.805 C81.22,5.785 81.04,5.765 80.84,5.765 C79.14,5.765 77.46,5.745 75.76,5.765 C75.26,5.765 75.04,5.605 75.08,5.105 C75.1,4.925 75.08,4.765 75.08,4.585 C75.1,4.265 75.26,4.065 75.6,4.065 C77.62,4.065 79.64,4.025 81.66,4.085 C83.4,4.145 84.5,5.425 84.52,7.305 C84.6,8.645 84.58,9.945 84.58,11.245 Z" id="Path" fill="#000000"></path>
                    <path d="M114.14,16.965 C112.98,16.965 111.8,16.945 110.64,16.965 C110.18,16.965 109.96,16.785 109.98,16.325 C109.98,16.185 110,16.045 109.98,15.905 C109.94,15.425 110.16,15.265 110.62,15.265 C112.64,15.285 114.66,15.265 116.68,15.265 C116.82,15.265 116.96,15.265 117.1,15.265 C118.44,15.205 119.08,14.165 118.54,12.905 C118.38,12.525 118.06,12.345 117.68,12.205 C116.36,11.765 114.98,11.525 113.64,11.205 C112.86,11.025 112.1,10.805 111.4,10.405 C109.9,9.585 109.58,8.205 109.84,6.585 C110.08,5.125 111.12,4.185 112.68,4.125 C114.88,4.045 117.1,4.085 119.32,4.085 C119.4,4.085 119.5,4.105 119.56,4.145 C120.02,4.485 119.82,4.985 119.8,5.405 C119.78,5.725 119.46,5.785 119.16,5.785 C117.52,5.765 115.88,5.785 114.24,5.785 C113.98,5.785 113.72,5.785 113.46,5.785 C111.88,5.785 111.16,7.025 111.9,8.445 C112.1,8.825 112.48,8.985 112.86,9.125 C114.08,9.565 115.36,9.745 116.6,10.065 C117.1,10.205 117.62,10.305 118.12,10.465 C120.6,11.225 120.82,12.605 120.52,14.565 C120.3,16.145 119.28,16.905 117.66,16.965 C117.62,16.965 117.6,16.965 117.56,16.965 C116.4,16.965 115.26,16.965 114.14,16.965 Z" id="Path" fill="#000000"></path>
                    <path d="M39.1,9.845 C39.1,11.545 39.1,13.225 39.1,14.925 C39.1,16.085 38.48,16.865 37.34,16.925 C35.48,17.005 33.6,17.105 31.76,16.885 C29.92,16.665 28.8,15.385 28.78,13.525 C28.74,10.585 28.78,7.645 28.76,4.685 C28.76,4.305 28.92,4.105 29.32,4.105 C29.34,4.105 29.36,4.105 29.38,4.105 C30.6,4.065 30.6,4.065 30.6,5.285 C30.6,7.925 30.6,10.585 30.64,13.225 C30.66,14.605 31.26,15.185 32.64,15.225 C33.9,15.265 35.14,15.265 36.4,15.265 C37.14,15.265 37.28,15.105 37.28,14.365 C37.28,11.185 37.28,8.025 37.28,4.845 C37.28,4.205 37.38,4.085 38.04,4.085 C38.12,4.085 38.22,4.085 38.3,4.085 C39.06,4.085 39.12,4.145 39.12,4.885 C39.1,6.545 39.1,8.205 39.1,9.845 Z" id="Path" fill="#000000"></path>
                    <path d="M108.54,9.865 C108.54,11.565 108.54,13.245 108.54,14.945 C108.54,16.105 107.9,16.885 106.76,16.925 C104.9,17.005 103.02,17.085 101.18,16.865 C99.36,16.645 98.24,15.385 98.2,13.545 C98.16,10.585 98.18,7.625 98.18,4.665 C98.18,4.285 98.36,4.105 98.76,4.085 C100,4.045 100.02,4.045 100.02,5.285 C100.02,7.925 100.02,10.545 100.06,13.165 C100.08,14.605 100.7,15.185 102.12,15.225 C103.32,15.265 104.52,15.265 105.72,15.265 C106.58,15.265 106.7,15.145 106.7,14.245 C106.7,11.125 106.7,8.005 106.7,4.885 C106.7,4.165 106.78,4.085 107.52,4.085 C107.64,4.085 107.76,4.085 107.88,4.085 C108.34,4.045 108.54,4.265 108.54,4.725 C108.52,6.445 108.54,8.165 108.54,9.865 Z" id="Path" fill="#000000"></path>
                    <path d="M68.8,12.085 C68.8,10.765 68.78,9.445 68.8,8.125 C68.82,5.765 70.26,4.245 72.64,4.105 C73.02,4.085 73.4,4.085 73.78,4.105 C73.88,4.105 74,4.105 74.08,4.165 C74.54,4.505 74.32,5.005 74.32,5.425 C74.32,5.765 74,5.805 73.7,5.805 C71.3,5.845 70.64,6.505 70.64,8.905 C70.62,11.345 70.64,13.785 70.64,16.225 C70.64,16.865 70.54,16.985 69.88,16.985 C69.76,16.985 69.64,16.985 69.52,16.985 C68.9,16.985 68.8,16.885 68.8,16.245 C68.8,14.845 68.8,13.465 68.8,12.085 Z" id="Path" fill="#000000"></path>
                    <path d="M8.32,1.845 C9.52,4.745 10.72,7.605 11.94,10.525 C11.64,10.525 11.4,10.525 11.16,10.525 C9.1,10.525 7.04,10.525 5,10.525 C4.7,10.525 4.54,10.525 4.7,10.145 C5.82,7.505 6.92,4.865 8.02,2.225 C8.06,2.105 8.1,1.965 8.32,1.845 Z" id="Path" fill="#FEFEFE"></path>
                    <path d="M25.24,10.665 C25.24,12.065 25.22,13.445 25.24,14.845 C25.24,15.185 25.16,15.285 24.8,15.285 C23.7,15.265 22.6,15.285 21.52,15.285 C19.54,15.285 18.68,14.565 18.42,12.605 C18.22,11.125 18.22,9.625 18.5,8.145 C18.78,6.645 19.58,5.925 21.08,5.845 C22.2,5.805 23.34,5.805 24.48,5.805 C25.18,5.805 25.24,5.905 25.24,6.605 C25.24,7.945 25.24,9.305 25.24,10.665 Z" id="Path" fill="#FEFEFE"></path>
                    <path d="M94.58,10.365 C94.58,11.725 94.58,13.085 94.58,14.445 C94.58,15.205 94.5,15.285 93.74,15.285 C92.68,15.285 91.62,15.305 90.56,15.245 C88.98,15.165 88.16,14.445 87.9,12.885 C87.64,11.285 87.62,9.665 87.92,8.065 C88.18,6.705 88.96,6.005 90.34,5.865 C91.64,5.725 92.94,5.825 94.26,5.805 C94.64,5.785 94.58,6.045 94.58,6.245 C94.58,7.605 94.58,8.985 94.58,10.365 Z" id="Path" fill="#FEFEFE"></path>
                    <path d="M46.26,10.705 C47.02,10.705 47.8,10.725 48.56,10.705 C48.86,10.705 49,10.765 48.98,11.105 C48.96,12.345 48.96,13.585 48.98,14.825 C48.98,15.185 48.82,15.285 48.52,15.285 C46.94,15.285 45.34,15.305 43.76,15.265 C43,15.245 42.6,14.885 42.46,14.145 C42.32,13.425 42.28,12.685 42.42,11.965 C42.58,11.085 42.96,10.725 43.86,10.705 C44.66,10.685 45.46,10.705 46.26,10.705 Z" id="Path" fill="#FEFEFE"></path>
                    <path d="M79.98,10.705 C80.78,10.705 81.58,10.725 82.38,10.705 C82.68,10.705 82.76,10.785 82.76,11.085 C82.74,12.325 82.74,13.565 82.76,14.805 C82.76,15.145 82.62,15.285 82.3,15.285 C80.72,15.285 79.12,15.305 77.54,15.285 C76.76,15.265 76.36,14.885 76.22,14.125 C76.08,13.405 76.06,12.665 76.18,11.945 C76.34,11.105 76.72,10.745 77.6,10.725 C78.4,10.685 79.2,10.705 79.98,10.705 Z" id="Path" fill="#FEFEFE"></path>
                </g>
            </g>
        </g>
    </g>
</svg>